<svg xmlns="http://www.w3.org/2000/svg" width="300" height="60" viewBox="0 0 300 60">
  <g fill="none" fill-rule="evenodd">
    <path fill="#1B1B1B" d="M0 0h20v50h-20z"/>
    <path fill="#1B1B1B" d="M30 10C41.046 10 50 18.954 50 30s-8.954 20-20 20-20-8.954-20-20 8.954-20 20-20zm0 5c-8.284 0-15 6.716-15 15 0 8.284 6.716 15 15 15 8.284 0 15-6.716 15-15 0-8.284-6.716-15-15-15z"/>
    <path fill="#1B1B1B" d="M60 0h40v10H80v40h-20z"/>
    <path fill="#1B1B1B" d="M110 0l30 50h-20l-20-50z"/>
    <path fill="#1B1B1B" d="M150 25h1v25h-1z"/>
    <text font-family="Arial, sans-serif" font-size="14" fill="#1B1B1B" x="160" y="30">
      LEADERS OF TOMORROW ASSOCIATION
    </text>
  </g>
</svg>

